<svg xmlns="http://www.w3.org/2000/svg" xmlns:xlink="http://www.w3.org/1999/xlink" version="1.1" width="256" height="256" viewBox="0 0 256 256" xml:space="preserve">

<defs>
</defs>
<g style="stroke: none; stroke-width: 0; stroke-dasharray: none; stroke-linecap: butt; stroke-linejoin: miter; stroke-miterlimit: 10; fill: none; fill-rule: nonzero; opacity: 1;" transform="translate(1.4065934065934016 1.4065934065934016) scale(2.81 2.81)" >
	<circle cx="68.842" cy="20.652" r="5.122" style="stroke: none; stroke-width: 1; stroke-dasharray: none; stroke-linecap: butt; stroke-linejoin: miter; stroke-miterlimit: 10; fill: rgb(15,80,221); fill-rule: nonzero; opacity: 1;" transform="  matrix(1 0 0 1 0 0) "/>
	<path d="M 62.471 90 H 27.53 C 12.35 90 0 77.65 0 62.471 V 27.53 C 0 12.35 12.35 0 27.53 0 h 34.941 C 77.65 0 90 12.35 90 27.53 v 34.941 C 90 77.65 77.65 90 62.471 90 z M 27.53 6 C 15.658 6 6 15.658 6 27.53 v 34.941 C 6 74.342 15.658 84 27.53 84 h 34.941 C 74.342 84 84 74.342 84 62.471 V 27.53 C 84 15.658 74.342 6 62.471 6 H 27.53 z" style="stroke: none; stroke-width: 1; stroke-dasharray: none; stroke-linecap: butt; stroke-linejoin: miter; stroke-miterlimit: 10; fill: rgb(15,80,221); fill-rule: nonzero; opacity: 1;" transform=" matrix(1 0 0 1 0 0) " stroke-linecap="round" />
	<path d="M 45.258 67.262 c -12.133 0 -22.003 -9.871 -22.003 -22.004 s 9.871 -22.003 22.003 -22.003 c 12.132 0 22.003 9.871 22.003 22.003 S 57.391 67.262 45.258 67.262 z M 45.258 29.254 c -8.824 0 -16.003 7.179 -16.003 16.003 s 7.179 16.004 16.003 16.004 c 8.825 0 16.003 -7.18 16.003 -16.004 S 54.083 29.254 45.258 29.254 z" style="stroke: none; stroke-width: 1; stroke-dasharray: none; stroke-linecap: butt; stroke-linejoin: miter; stroke-miterlimit: 10; fill: rgb(15,80,221); fill-rule: nonzero; opacity: 1;" transform=" matrix(1 0 0 1 0 0) " stroke-linecap="round" />
</g>
</svg>